<svg width="20" height="20" viewBox="0 0 20 20" fill="none" xmlns="http://www.w3.org/2000/svg">
<path d="M11.7271 15.5032C10.1362 14.8943 8.49979 14.8006 6.99979 15.2222C5.95434 15.5032 4.95433 16.0652 4.04524 16.7678L3.40887 17.3299L3.22705 17.5172L3.63614 17.8919C3.68159 17.8919 3.6816 17.9388 3.72705 17.9856C3.81796 18.0793 3.90888 18.1261 4.04524 18.2198L4.31796 18.4071L4.59069 18.173C4.63614 18.1261 4.72705 18.0324 4.81796 17.9856C5.63615 17.283 6.54523 16.8146 7.49978 16.5805C8.72706 16.2526 10.0452 16.2994 11.3634 16.8146C12.4543 17.2362 14.6816 17.7514 17.3634 16.5805L17.4544 16.5336L17.5907 16.3931C17.5907 16.3463 17.6362 16.3463 17.6816 16.2994C17.9089 16.0184 18.1362 15.7374 18.318 15.4095L19.2271 13.9575L17.7725 14.8006C15.6362 16.0184 13.6816 16.2526 11.7271 15.5032Z" fill="#31B099"/>
<path d="M5.50028 10.445C6.72755 10.1171 8.04573 10.1639 9.36392 10.6792C10.8185 11.2412 14.5457 12.0375 18.7276 8.14991L19.4094 7.44734L19.4548 7.4005L19.6367 7.21315L19.5457 6.97896C19.5003 6.7916 19.4094 6.55742 19.3185 6.32323L19.0912 5.66748L18.6367 6.13586C18.5912 6.22954 18.5003 6.27638 18.4094 6.37005C16.4094 8.47777 13.3185 10.6323 9.77301 9.32086C8.1821 8.71197 6.54573 8.61829 5.04573 9.03983C3.59118 9.46138 2.31845 10.2576 1.13663 11.3817V11.3349L0.454812 12.0843C0.454812 12.1312 0.409366 12.1312 0.363911 12.178L0.227539 12.3185L0.272996 12.5059C0.318451 12.74 0.409357 12.9742 0.454812 13.2084L0.727543 13.9578L1.18209 13.3489C1.22754 13.2553 1.31845 13.2084 1.3639 13.1148C2.31845 12.2248 3.63664 10.9602 5.50028 10.445Z" fill="#31B099"/>
<path d="M1.09092 9.60201C2.13638 8.47789 3.31819 7.77531 4.59092 7.40061C5.81819 7.07274 7.13638 7.11958 8.45456 7.6348C12.5455 9.18046 16.0909 6.6512 17.6364 5.29289L18.2273 4.684L18.4546 4.49664L18.2728 4.21562C18.1364 4.07511 18.0455 3.88775 17.9091 3.7004L17.6364 3.32568L17.3182 3.65356C17.2728 3.70039 17.1818 3.79407 17.1364 3.84091C15.2273 5.71443 12.2727 7.63481 8.90911 6.32334C7.31819 5.71444 5.68183 5.62076 4.18183 6.04231C3.22728 6.32333 2.31819 6.79171 1.4091 7.40061L0.454546 8.19686C0.363637 8.29054 0.318182 8.33738 0.227273 8.43105L0.136372 8.52472V8.66524C0.0909175 8.99311 0.090912 9.32098 0.0454574 9.60201L0 10.773L0.772734 9.92987C0.863643 9.83619 0.954558 9.69568 1.09092 9.60201Z" fill="#31B099"/>
<path d="M13.0453 18.6885L12.9544 18.9696L13.0453 18.6885C12.909 18.6417 12.8181 18.5948 12.6817 18.548C11.0908 17.9391 9.45441 17.8454 7.9544 18.267C7.63622 18.3607 7.31805 18.4543 6.99987 18.5948L5.90895 19.1101L5.63623 19.2506L6.54532 19.5784C6.81805 19.6721 7.09077 19.7658 7.3635 19.8595L7.49986 19.9063L7.63623 19.8595C7.77259 19.8126 7.90896 19.719 8.04532 19.719C8.13623 19.719 8.22714 19.6721 8.31805 19.6253C9.40896 19.3443 10.5908 19.3442 11.8635 19.7658C11.9999 19.8126 12.0908 19.8595 12.2271 19.9063L12.4544 20L12.5908 19.9531C12.909 19.8595 13.2726 19.7658 13.5453 19.6253L14.8181 19.1569L13.4999 18.829C13.3635 18.7822 13.1817 18.7354 13.0453 18.6885Z" fill="#31B099"/>
<path d="M20 8.99316L19.3182 9.69574C19.2273 9.78941 19.1364 9.88309 19.0455 9.97677C17.1818 11.8035 14.1818 13.7707 10.8182 12.4592C9.22728 11.8503 7.59092 11.7566 6.09092 12.1782C4.68183 12.5997 3.40909 13.3491 2.27272 14.4732L1.68182 15.129L1.5 15.3632L1.68182 15.6442C1.81818 15.8315 1.90909 15.9721 2 16.1594L2.27272 16.581L2.59091 16.1594C2.63636 16.1126 2.72727 16.0189 2.77272 15.972C3.86363 14.7543 5.04545 14.0048 6.40909 13.6301C7.63637 13.3023 8.95455 13.3491 10.2727 13.8643C11.4091 14.2859 12.5909 14.4264 13.7727 14.2859C15.8637 14.0517 17.9546 12.8339 19.5 11.4756C19.5909 11.3819 19.6818 11.3351 19.7727 11.2414L19.9091 11.1009V10.9604C19.9091 10.6793 19.9546 10.3515 19.9546 10.0705L20 8.99316Z" fill="#31B099"/>
<path d="M2.72725 4.68391L2.59089 4.40288L2.72725 4.68391C2.99998 4.5434 3.31817 4.44971 3.5909 4.35604C4.81817 4.02817 6.13635 4.07501 7.45454 4.59023C8.31818 4.9181 9.18181 5.05861 10.1364 5.05861C12.0455 5.05861 13.9545 4.35604 15.7273 2.99773L16.4091 2.43567L16.6364 2.24832L16.2273 1.92045C16.0909 1.77993 15.9091 1.63942 15.7273 1.54575L15.4545 1.3584L15.2273 1.54575C15.1364 1.59259 15.0909 1.68626 15 1.7331C12.5909 3.60662 10.1818 4.12185 7.90908 3.23192C6.27272 2.62303 4.63634 2.48251 2.99998 2.99773C2.86361 3.04457 2.72725 3.0914 2.54543 3.13824L2.45453 3.18508L2.31816 3.32559C2.31816 3.37243 2.27271 3.37244 2.22726 3.41927C2.04544 3.7003 1.81816 3.9345 1.63634 4.21553L0.772705 5.57383L2.1818 4.82442C2.40907 4.82442 2.59088 4.73075 2.72725 4.68391Z" fill="#31B099"/>
<path d="M6.45455 1.49881L6.59091 1.54565C7.18182 1.77984 8.09092 2.01403 9.22729 2.01403C10.4091 2.01403 11.5455 1.733 12.6818 1.26462L14.0909 0.562049L13.1364 0.234191C12.8637 0.140514 12.5909 0.0468382 12.2727 0H12.1364L12 0.0468267C11.8637 0.0936649 11.7273 0.187353 11.5909 0.234191C10.2273 0.74941 8.86364 0.843087 7.54546 0.468381C7.4091 0.421543 7.27274 0.374697 7.13637 0.327858L7.00001 0.281017L6.86364 0.327858C6.59091 0.421535 6.31819 0.515217 6.04546 0.655731L5 1.12411L6.09092 1.45197C6.18183 1.40513 6.31819 1.45197 6.45455 1.49881Z" fill="#31B099"/>
</svg>
